<svg width="130" height="40" viewBox="0 0 130 40" fill="none" xmlns="http://www.w3.org/2000/svg">
<path d="M57.3446 30.394C57.3446 33.7536 55.0551 35.9685 50.9241 35.9685C47.4898 35.9685 45.7229 34.6246 45.7229 32.6089V31.0908H45.7976C46.9423 32.1111 48.4852 32.9324 50.5508 32.9324C53.114 32.9324 53.9353 32.0614 53.9353 30.6926C53.9353 29.523 53.4873 29.0004 49.8789 28.2289C46.9921 27.6068 45.3496 26.1634 45.3496 23.849C45.3496 21.012 47.7387 18.3243 51.7453 18.3243C55.727 18.3243 56.8718 20.0166 56.8718 21.4351V23.0029H56.7723C55.727 21.883 54.209 21.3355 52.3426 21.3355C49.7046 21.3355 48.7341 22.2065 48.7341 23.5255C48.7341 24.5458 49.5304 25.168 52.7158 25.8399C55.8266 26.4869 57.3446 28.1045 57.3446 30.394Z" fill="#F8F9FA"/>
<path d="M59.2177 22.7789C59.2177 21.46 59.4665 20.9622 60.1882 20.1161C60.6362 19.5935 61.2334 19.1953 61.7561 19.1953H62.5275V22.2314H67.1812V23.6001C67.1812 24.297 66.559 25.1928 65.1903 25.1928H62.5275V30.4438C62.5275 32.1858 63.299 32.8577 64.6428 32.8577C65.7129 32.8577 66.5342 32.7084 67.0568 32.3849H67.1812V33.5794C67.1812 34.9481 66.1857 35.8191 64.2446 35.8191C60.8602 35.8191 59.2177 33.9776 59.2177 30.842V22.7789Z" fill="#F8F9FA"/>
<path d="M79.5065 27.1339C79.5065 29.5977 77.6401 30.394 73.2104 30.394H71.0204C71.2693 32.0863 72.8122 33.1563 74.7782 33.1563C76.1718 33.1563 77.8143 32.8826 78.8844 31.8872H79.0088V32.9324C79.0088 34.6495 77.8392 35.9685 74.1561 35.9685C70.8213 35.9685 67.5613 33.3305 67.5613 29.2244C67.5613 24.7449 70.2987 21.9328 74.1312 21.9328C76.9184 21.9328 79.5065 23.9237 79.5065 27.1339ZM76.3709 26.7358C76.3709 25.3919 75.3755 24.72 73.8325 24.72C72.215 24.72 71.0951 26.039 71.0204 27.5819L70.9955 28.0298H72.4887C75.6492 28.0298 76.3709 27.6814 76.3709 26.7358Z" fill="#F8F9FA"/>
<path d="M88.8043 25.4915H88.6799C88.1822 25.2924 87.6098 25.0933 86.7388 25.0933C85.2457 25.0933 84.4244 25.9145 84.4244 27.9552V35.6698H83.5036C82.0105 35.6698 81.0648 34.9233 81.0648 33.5296V27.3579C81.0648 24.6702 82.4833 22.107 86.0171 22.107C88.0827 22.107 88.8043 23.2766 88.8043 24.297V25.4915Z" fill="#F8F9FA"/>
<path d="M96.2886 33.7785C96.2886 35.2219 95.5171 35.7943 94.0489 35.7943C91.2865 35.7943 89.7934 34.326 89.7934 31.6134V17.752H90.739C92.4064 17.752 93.1281 18.7225 93.1281 19.9917V25.6408V31.2899C93.1281 32.6337 93.8249 33.0568 95.3927 33.0568H96.2886V33.7785Z" fill="#F8F9FA"/>
<path d="M100.822 19.3198C100.822 20.3899 99.9262 21.2858 98.8561 21.2858C97.786 21.2858 96.915 20.3899 96.915 19.3198C96.915 18.2497 97.786 17.3787 98.8561 17.3787C99.9262 17.3787 100.822 18.2497 100.822 19.3198ZM103.211 33.7785C103.211 35.2219 102.639 35.7943 101.22 35.7943C98.6322 35.7943 97.2137 34.326 97.2137 31.6134C97.2137 30.842 97.2137 22.5301 97.2137 22.5301H98.1593C99.6525 22.5301 100.548 23.3264 100.548 25.0186V31.2899C100.548 32.6337 101.121 33.0568 102.589 33.0568H103.211V33.7785Z" fill="#F8F9FA"/>
<path d="M115.903 35.6698H115.007C113.514 35.6698 112.568 34.7242 112.568 33.4799V28.1543C112.568 25.8897 111.573 24.8942 109.856 24.8942C108.413 24.8942 107.417 25.9892 107.417 27.9054V35.6698H106.422C105.003 35.6698 104.082 34.7242 104.082 33.4799V27.6814C104.082 24.8444 105.949 21.9328 110.13 21.9328C113.29 21.9328 115.903 24.0481 115.903 27.8556V35.6698Z" fill="#F8F9FA"/>
<path d="M129.901 30.0954C129.901 30.5433 129.926 31.3148 129.951 31.9121C129.975 32.4595 130 33.1812 130 33.6292C130 36.9888 127.761 40 123.43 40C120.668 40 118.777 38.6561 118.777 37.0634V35.5454H118.926C119.722 36.3915 121.265 36.9888 123.182 36.9888C125.595 36.9888 126.69 35.844 126.69 33.9029C126.69 33.7038 126.69 33.4301 126.666 33.2061C126.666 33.007 126.641 32.6586 126.641 32.5342V32.2107C126.367 33.1812 125.098 34.2016 123.182 34.2016C119.921 34.2016 117.607 31.9369 117.607 28.7764C117.607 24.9938 120.096 21.9328 124.426 21.9328C127.761 21.9328 129.901 24.3716 129.901 27.8059V30.0954ZM124.053 24.8942C122.335 24.8942 121.041 26.3376 121.041 28.3534C121.041 30.0954 122.111 31.3894 123.704 31.3894C125.372 31.3894 126.566 30.1451 126.566 28.005C126.566 25.9145 125.521 24.8942 124.053 24.8942Z" fill="#F8F9FA"/>
<circle cx="19.9088" cy="19.9088" r="19.9088" fill="#DB353A"/>
<ellipse cx="26.9598" cy="12.0281" rx="6.22148" ry="6.22148" fill="white"/>
</svg>
